<svg xmlns="http://www.w3.org/2000/svg" viewBox="0 0 400 200" width="400" height="200">
  <defs>
    <!-- African textile-inspired pattern -->
    <linearGradient id="textile-base" x1="0%" y1="0%" x2="100%" y2="0%">
      <stop offset="0%" stop-color="#8B4513"/>
      <stop offset="25%" stop-color="#A0522D"/>
      <stop offset="50%" stop-color="#CD853F"/>
      <stop offset="75%" stop-color="#D2691E"/>
      <stop offset="100%" stop-color="#B8860B"/>
    </linearGradient>
    
    <!-- Kente-inspired geometric pattern -->
    <pattern id="kente-pattern" x="0" y="0" width="40" height="40" patternUnits="userSpaceOnUse">
      <rect width="40" height="40" fill="#8B4513"/>
      
      <!-- Vertical stripes -->
      <rect x="8" y="0" width="4" height="40" fill="#D2691E"/>
      <rect x="16" y="0" width="2" height="40" fill="#CD853F"/>
      <rect x="24" y="0" width="4" height="40" fill="#A0522D"/>
      <rect x="32" y="0" width="2" height="40" fill="#B8860B"/>
      
      <!-- Horizontal stripes -->
      <rect x="0" y="8" width="40" height="4" fill="#D2691E" opacity="0.7"/>
      <rect x="0" y="16" width="40" height="2" fill="#CD853F" opacity="0.6"/>
      <rect x="0" y="24" width="40" height="4" fill="#A0522D" opacity="0.7"/>
      <rect x="0" y="32" width="40" height="2" fill="#B8860B" opacity="0.6"/>
      
      <!-- Diamond accents -->
      <polygon points="20,6 24,10 20,14 16,10" fill="#FFD700" opacity="0.8"/>
      <polygon points="20,26 24,30 20,34 16,30" fill="#FFD700" opacity="0.8"/>
    </pattern>
    
    <!-- Adinkra symbol pattern -->
    <pattern id="adinkra-symbols" x="0" y="0" width="80" height="80" patternUnits="userSpaceOnUse">
      <rect width="80" height="80" fill="transparent"/>
      
      <!-- Gye Nyame symbol (supremacy of God) -->
      <g transform="translate(20,20)" fill="#654321" opacity="0.4">
        <circle cx="20" cy="20" r="18" fill="none" stroke="#654321" stroke-width="2"/>
        <path d="M20,8 L20,32 M12,20 L28,20 M16,16 L24,24 M24,16 L16,24"/>
      </g>
    </pattern>
    
    <!-- Natural fabric texture -->
    <filter id="fabric-texture" x="0" y="0" width="100%" height="100%">
      <feTurbulence baseFrequency="0.8 0.4" numOctaves="2" result="noise"/>
      <feDisplacementMap in="SourceGraphic" in2="noise" scale="1"/>
    </filter>
  </defs>
  
  <!-- Base textile background -->
  <rect width="400" height="200" fill="url(#textile-base)" filter="url(#fabric-texture)"/>
  
  <!-- Kente pattern overlay -->
  <rect width="400" height="200" fill="url(#kente-pattern)" opacity="0.6"/>
  
  <!-- Adinkra symbol overlay -->
  <rect width="400" height="200" fill="url(#adinkra-symbols)" opacity="0.3"/>
  
  <!-- Subtle border decoration -->
  <rect x="10" y="10" width="380" height="180" 
        fill="none" 
        stroke="#654321" 
        stroke-width="2" 
        opacity="0.6"/>
  
  <!-- Inner decorative border -->
  <rect x="20" y="20" width="360" height="160" 
        fill="none" 
        stroke="#D2691E" 
        stroke-width="1" 
        opacity="0.4"/>
</svg>